<svg width="173" height="47" viewBox="0 0 173 47" fill="none" xmlns="http://www.w3.org/2000/svg">
<path fill-rule="evenodd" clip-rule="evenodd" d="M38.5609 0.0374901C38.4139 0.119969 38.1946 0.204116 38.0453 0.235348C37.9665 0.251855 37.7603 0.307762 37.587 0.359642C36.998 0.535989 36.6079 0.640439 36.298 0.704743C36.2035 0.724356 36.0746 0.762375 36.0116 0.789235C35.9486 0.816095 35.8326 0.851583 35.7538 0.868033C35.6751 0.88454 35.4688 0.940447 35.2955 0.992327C34.7066 1.16867 34.3164 1.27312 34.0066 1.33743C33.9121 1.35704 33.7832 1.39506 33.7201 1.42192C33.6571 1.44878 33.5411 1.48312 33.4624 1.49819C33.3836 1.51326 33.1774 1.56801 33.0041 1.61989C32.2596 1.84271 32.0359 1.90351 31.7151 1.97011C31.6206 1.98973 31.4917 2.02774 31.4287 2.0546C31.3118 2.10441 31.1751 2.13668 30.7046 2.22554C30.3785 2.28714 30.197 2.39505 30.197 2.52745C30.197 2.62132 31.0566 3.67129 31.3401 3.92378C31.5418 4.10347 31.6292 4.32376 31.6292 4.65281V4.9561L25.0813 11.5433C21.4799 15.1663 16.6912 19.9941 14.4397 22.2718C12.1882 24.5494 9.32195 27.4483 8.07018 28.7136L5.79424 31.0143L5.79648 27.5633L5.79871 24.1123L7.37736 22.5018C10.5916 19.2227 12.4719 17.2593 12.652 16.9938C12.8426 16.7129 13.1338 16.4919 13.3138 16.4915C13.4845 16.4912 13.677 16.6531 14.0901 17.1441C14.682 17.8479 15.0117 18.1593 15.1648 18.1593C15.3149 18.1593 15.4171 18.0098 15.4171 17.7904C15.4171 17.7099 15.4527 17.5464 15.4962 17.4271C15.5396 17.3079 15.6071 17.0938 15.646 16.9515C15.685 16.8091 15.7367 16.6279 15.7608 16.5488C15.785 16.4697 15.8366 16.2886 15.8754 16.1462C15.9142 16.0039 15.9658 15.8227 15.99 15.7436C16.0142 15.6645 16.0654 15.4833 16.1038 15.341C16.1422 15.1986 16.2063 14.9786 16.2463 14.8521C16.2862 14.7256 16.3509 14.5055 16.3902 14.3632C16.4294 14.2208 16.4814 14.0397 16.5056 13.9606C16.5297 13.8815 16.5818 13.7003 16.6212 13.558C16.7521 13.0855 16.8058 12.8987 16.8777 12.6664C16.9169 12.5399 16.9811 12.3199 17.0203 12.1776C17.0596 12.0352 17.1115 11.854 17.1357 11.7749C17.1599 11.6959 17.2114 11.5147 17.2503 11.3723C17.2891 11.23 17.3406 11.0488 17.3647 10.9697C17.3889 10.8906 17.4535 10.6706 17.5084 10.4808C17.5634 10.291 17.6308 10.0908 17.6584 10.0359C17.7472 9.85906 17.7164 9.49923 17.6038 9.39691C17.4921 9.29545 17.2515 9.27003 17.1615 9.3502C17.1023 9.40295 16.6594 9.53989 15.8181 9.7657C15.3103 9.90202 15.2135 9.92739 14.9875 9.98329C14.6669 10.0625 14.2877 10.1648 13.985 10.2535C13.6722 10.3452 13.1191 10.4948 12.6101 10.6255C12.1371 10.7468 11.8961 10.8107 11.6362 10.8834C11.4944 10.9231 11.2624 10.9864 11.1206 11.0241C10.9788 11.0617 10.7837 11.1167 10.6869 11.1462C10.5902 11.1756 10.4563 11.1998 10.3895 11.1998C10.3227 11.1998 10.2539 11.2228 10.2366 11.251C10.2193 11.2791 10.1211 11.316 10.0184 11.3329C9.29147 11.4527 8.88645 11.6067 8.88645 11.7633C8.88645 11.8258 9.13416 12.1157 9.46631 12.442C10.1757 13.1388 10.4332 13.5141 10.4332 13.8513C10.4332 14.0849 10.408 14.1177 9.6455 14.8786C8.13646 16.3843 5.83268 18.6209 5.81206 18.6003C5.75586 18.5439 5.68047 16.6926 5.67818 15.3122C5.67675 14.4581 5.65137 13.3063 5.62175 12.7527C5.54092 11.2416 5.49154 8.36109 5.54528 8.29212C5.71295 8.07701 7.22761 7.30031 8.62866 6.71105C8.81782 6.6315 10.103 6.18943 10.3186 6.12978C10.4289 6.09924 10.6093 6.04776 10.7196 6.01527C10.8299 5.98283 10.9975 5.94372 11.092 5.92836C11.1865 5.91294 11.3154 5.87803 11.3784 5.85071C11.4414 5.82339 11.5832 5.78537 11.6935 5.76616C12.0669 5.70128 12.4085 5.63554 12.696 5.57319C13.5903 5.37942 14.4785 5.3043 15.8754 5.3043C17.7848 5.3043 18.5219 5.40616 20.7018 5.97132C20.8357 6.00606 20.99 6.05783 21.0447 6.08636C21.0994 6.11494 21.1768 6.13824 21.2166 6.13812C21.2791 6.13801 21.4823 6.2141 22.1769 6.49783C22.2557 6.52998 22.3717 6.57611 22.4347 6.60027C22.6728 6.69161 23.0242 6.85202 23.5186 7.09497C23.7996 7.23313 24.0474 7.34615 24.0692 7.34615C24.1189 7.34615 24.4817 7.05868 24.7835 6.78024C24.9095 6.66394 25.1028 6.49496 25.2131 6.40471C25.3234 6.31447 25.5167 6.14589 25.6428 6.03005C25.7688 5.91427 26.0975 5.62783 26.3732 5.39357C26.6489 5.1593 26.8744 4.94758 26.8744 4.92302C26.8744 4.87592 26.3938 4.52783 26.3287 4.52783C26.3077 4.52783 26.2174 4.47548 26.1279 4.41153C25.8869 4.23921 24.4742 3.54026 23.9098 3.31411C23.839 3.28569 23.7165 3.23657 23.6377 3.20494C23.559 3.17331 23.4236 3.11912 23.337 3.08456C23.2503 3.05005 23.1065 2.98534 23.0173 2.94076C22.9281 2.89625 22.8071 2.85984 22.7485 2.85984C22.6899 2.85984 22.626 2.83396 22.6066 2.80232C22.5871 2.77069 22.5208 2.74481 22.4592 2.74481C22.3976 2.74481 22.3024 2.72145 22.2477 2.69287C22.193 2.66434 22.0323 2.60907 21.8905 2.57013C21.7487 2.53113 21.4479 2.43801 21.2221 2.36318C20.9962 2.28835 20.7464 2.22715 20.6669 2.22715C20.5874 2.22715 20.5081 2.20403 20.4907 2.17573C20.4733 2.14744 20.3622 2.10994 20.2438 2.09234C20.1255 2.07479 19.8998 2.03545 19.7422 2.00491C19.2563 1.91075 18.7291 1.82212 18.3125 1.76466C18.0933 1.73441 17.8675 1.69489 17.8109 1.67683C17.7543 1.65883 17.1603 1.61253 16.4909 1.57405C15.5284 1.51872 15.0173 1.51907 14.047 1.5756C13.3722 1.61489 12.7792 1.66297 12.7294 1.68236C12.6795 1.7018 12.4454 1.74355 12.2091 1.77519C11.253 1.90322 9.96688 2.16947 9.52606 2.33057C9.44208 2.36123 9.25738 2.41823 9.1156 2.45711C8.97381 2.49599 8.80625 2.54718 8.74324 2.57082C8.68022 2.59451 8.52555 2.64478 8.39952 2.68263C8.20354 2.74153 7.80695 2.88998 7.29675 3.09548C7.22583 3.12407 7.10341 3.17331 7.02464 3.20494C6.94587 3.23657 6.82345 3.2861 6.75253 3.31503C6.50059 3.41781 4.61437 4.35815 4.36082 4.50741C4.21904 4.59086 4.01332 4.71015 3.90362 4.7725C3.09072 5.23465 1.56186 6.29721 0.637198 7.04263L0.150263 7.43513L0.112052 18.7934C0.0910279 25.0404 0.057229 32.3774 0.0368923 35.098L0 40.0444L0.619381 40.4465C0.960007 40.6677 1.2516 40.8644 1.26735 40.8837C1.2831 40.903 1.34755 40.946 1.41057 40.9792C1.47358 41.0125 2.11399 41.4434 2.83368 41.9368C3.55331 42.4303 4.16158 42.834 4.18535 42.834C4.20907 42.834 4.27518 42.8858 4.33218 42.949C4.38918 43.0123 4.45494 43.0641 4.47826 43.0641C4.50157 43.0641 4.74888 43.2209 5.02792 43.4125C5.44531 43.6992 6.30747 44.1587 6.85278 44.3852C6.9158 44.4113 7.07047 44.4755 7.1965 44.5276C7.32253 44.5799 7.47039 44.6472 7.5251 44.6773C7.57981 44.7074 7.67135 44.7321 7.72846 44.7321C7.78564 44.7321 7.85684 44.7538 7.8868 44.7804C7.91671 44.8069 8.2119 44.9122 8.54273 45.0143C8.87356 45.1164 9.24822 45.237 9.37528 45.2824C9.5024 45.3277 9.662 45.3647 9.72994 45.3647C9.79794 45.3647 9.86949 45.3906 9.88897 45.4223C9.90844 45.4539 9.99191 45.4798 10.0745 45.4798C10.157 45.4798 10.3037 45.5036 10.4005 45.5329C10.5977 45.5924 10.9806 45.6716 11.493 45.7591C11.682 45.7913 12.0558 45.8569 12.3236 45.9049C12.5915 45.9528 13.0168 46.0116 13.2689 46.0353C13.9756 46.102 16.9808 46.0871 17.6226 46.0138C18.2229 45.9451 19.2817 45.7603 20.0287 45.5937C20.1862 45.5586 20.4119 45.5158 20.5303 45.4987C20.6486 45.4816 20.7597 45.4445 20.7771 45.4162C20.7945 45.3879 20.8596 45.3647 20.9215 45.3647C21.039 45.3647 21.9027 45.1015 22.0759 45.013C22.1306 44.985 22.2221 44.9621 22.2792 44.9621C22.3364 44.9621 22.4076 44.9407 22.4376 44.9146C22.4675 44.8885 22.608 44.8308 22.7498 44.7865C22.8916 44.7422 23.1299 44.647 23.2794 44.5751C23.4289 44.5033 23.5775 44.4445 23.6096 44.4445C23.6417 44.4445 23.7127 44.419 23.7674 44.3879C23.8221 44.3567 24.0344 44.2563 24.2392 44.1646C24.8124 43.9081 25.6032 43.5088 26.0151 43.2678C26.6961 42.8695 26.7877 42.8164 26.9037 42.7531C27.1307 42.6291 28.6901 41.5426 29.2518 41.1169C29.8904 40.633 31.3746 39.1706 32.0332 38.3764C32.8559 37.3845 33.9978 35.7464 34.5392 34.7816C34.7274 34.4462 35.7361 32.4167 35.8114 32.2222C35.8359 32.1589 35.9517 31.8612 36.0689 31.5607C36.1861 31.2602 36.3021 30.9625 36.3267 30.8993C36.3513 30.836 36.4152 30.6419 36.4686 30.4679C36.522 30.2939 36.6306 29.9445 36.7099 29.6914C36.8511 29.2409 36.9053 29.0347 37.0199 28.5123C37.1061 28.1194 37.1697 27.7771 37.239 27.3332C37.2736 27.1118 37.3168 26.8918 37.3351 26.8443C37.4372 26.5791 37.4955 25.4394 37.4955 23.7097C37.4955 21.9799 37.4372 20.8402 37.3351 20.575C37.3168 20.5276 37.2736 20.3076 37.239 20.0861C37.169 19.6379 37.1061 19.3003 37.0168 18.8926C36.9838 18.7423 36.933 18.5094 36.9038 18.375C36.8265 18.0177 36.7452 17.7104 36.682 17.5361C36.6514 17.4518 36.5947 17.2664 36.5559 17.124C36.5172 16.9816 36.4654 16.8134 36.441 16.7501C36.4165 16.6869 36.3578 16.5057 36.3107 16.3475C36.0691 15.5372 34.8733 12.7454 34.6545 12.4807C34.5895 12.4022 34.4886 12.4667 34.0639 12.8584C33.9378 12.9747 33.6544 13.2249 33.434 13.4146C33.2136 13.6041 32.9172 13.8658 32.7752 13.9959C32.6333 14.1262 32.3302 14.3926 32.1018 14.5882C31.8734 14.7838 31.6865 14.9692 31.6865 15.0003C31.6865 15.0315 31.7834 15.2308 31.9019 15.4434C32.12 15.8347 32.3534 16.3099 32.4308 16.5201C32.4777 16.6472 32.548 16.82 32.6766 17.124C32.7234 17.2347 32.7957 17.4288 32.8373 17.5554C32.8789 17.6819 32.9334 17.81 32.9585 17.8401C32.9836 17.8701 33.0041 17.9527 33.0041 18.0236C33.0041 18.0945 33.0298 18.1685 33.0614 18.1881C33.0929 18.2076 33.1186 18.2982 33.1186 18.3894C33.1186 18.4805 33.1416 18.5693 33.1696 18.5868C33.1976 18.6041 33.2332 18.7027 33.2486 18.8058C33.264 18.9089 33.3276 19.1745 33.3899 19.3959C33.4907 19.7542 33.5504 20.0174 33.6637 20.6038C33.8448 21.5411 33.9389 23.459 33.8648 24.7018C33.7718 26.2621 33.6575 27.0408 33.3775 28.0234C33.3233 28.2132 33.2668 28.4332 33.2518 28.5123C33.2368 28.5914 33.2041 28.7079 33.1791 28.7711C33.1541 28.8344 33.0773 29.0674 33.0084 29.2888C32.7109 30.2442 31.9456 31.9418 31.3792 32.9027C31.2331 33.1505 31.1136 33.3632 31.1136 33.3755C31.1136 33.4131 30.254 34.6704 29.9163 35.1268C29.0807 36.2557 28.2111 37.2517 27.5903 37.7906C25.8979 39.2596 23.8952 40.4764 21.8046 41.3059C21.584 41.3935 21.3588 41.4884 21.3041 41.5169C21.2494 41.5453 21.1542 41.5686 21.0927 41.5686C21.0311 41.5686 20.9666 41.5915 20.9493 41.6195C20.9321 41.6475 20.8468 41.6842 20.7598 41.701C20.5964 41.7327 20.4268 41.7798 19.8855 41.9436C19.1009 42.181 18.1043 42.3463 16.9352 42.4327C16.0816 42.4958 13.877 42.4513 13.6518 42.3664C13.5789 42.3388 13.4451 42.3163 13.3545 42.3163C13.2638 42.3163 13.1738 42.2905 13.1543 42.2588C13.1348 42.2272 13.0777 42.2013 13.0274 42.2013C12.9771 42.2013 12.8498 42.1353 12.7444 42.0546C12.4201 41.8062 12.4674 41.6431 13.0254 41.088C13.519 40.5969 14.2494 39.902 14.7875 39.4118C15.7945 38.4941 16.4483 37.8599 16.4483 37.8005C16.4483 37.576 16.9814 37.4544 17.2645 37.6143C17.538 37.7688 18.0407 38.1825 18.3944 38.5439C18.7938 38.9522 18.957 39.0102 19.096 38.7934C19.1763 38.6682 19.2887 38.074 19.3326 37.5425C19.3443 37.4001 19.3975 37.1413 19.4508 36.9673C19.5603 36.6096 19.6347 36.3283 19.6867 36.0758C19.7063 35.9809 19.7441 35.8515 19.7709 35.7882C19.7976 35.7249 19.8355 35.5955 19.855 35.5006C19.8746 35.4057 19.9135 35.2375 19.9415 35.1268C19.9921 34.9269 20.024 34.8145 20.2031 34.2065C20.2543 34.0325 20.3199 33.806 20.3487 33.7032C20.3775 33.6004 20.4292 33.4192 20.4637 33.3006C20.4981 33.182 20.5396 33.0005 20.5559 32.8975C20.5722 32.7943 20.6085 32.6957 20.6365 32.6784C20.6646 32.6609 20.6875 32.5758 20.6875 32.4891C20.6875 32.4024 20.708 32.3069 20.733 32.2768C20.758 32.2468 20.825 32.0669 20.8819 31.8771C20.9388 31.6872 21.0085 31.487 21.0369 31.4321C21.0653 31.3772 21.0885 31.2844 21.0885 31.226C21.0885 31.1675 21.1078 31.1005 21.1314 31.077C21.2233 30.9855 21.296 30.4979 21.238 30.3626C21.186 30.2414 21.1524 30.2311 20.891 30.256C20.7318 30.2711 20.4984 30.3109 20.3724 30.3444C20.2464 30.3778 20.0659 30.4213 19.9714 30.4409C19.8769 30.4605 19.748 30.4985 19.685 30.5254C19.6219 30.5523 19.5059 30.587 19.4272 30.6026C19.3484 30.6182 19.1422 30.674 18.9689 30.7265C18.7956 30.7791 18.5572 30.8459 18.439 30.875C17.9598 30.9932 17.7262 31.0511 17.5081 31.1058C17.382 31.1374 17.1887 31.186 17.0784 31.2137C16.9681 31.2413 16.7361 31.3069 16.5628 31.3594C16.3896 31.4119 16.1447 31.4798 16.0186 31.5104C15.7676 31.5712 15.449 31.6509 15.1164 31.7359C14.9982 31.7661 14.8049 31.8147 14.6867 31.844C14.5686 31.8733 14.3172 31.9393 14.1282 31.9909C13.635 32.1254 13.407 32.1833 13.2116 32.2239C12.8837 32.292 12.5525 32.4908 12.5531 32.6193C12.5532 32.6539 12.6241 32.76 12.7106 32.855C12.7971 32.95 12.9557 33.1312 13.063 33.2576C13.1704 33.384 13.4346 33.6774 13.6502 33.9096C14.0277 34.3161 14.0422 34.3423 14.0422 34.6228V34.9141L13.2259 35.7285C12.777 36.1764 11.5975 37.3303 10.605 38.2926C9.61256 39.255 8.47829 40.3556 8.08444 40.7385C6.32071 42.4529 6.01084 42.7489 5.96083 42.7669C5.92835 42.7786 5.9079 41.4751 5.90842 39.4309L5.90922 36.0758L12.9993 28.9437C16.8989 25.0211 23.2336 18.6315 27.0766 14.7447C30.9196 10.8579 34.16 7.61607 34.2775 7.54073C34.4054 7.45871 34.5777 7.40366 34.7065 7.40366C34.9072 7.40366 34.979 7.46089 35.7704 8.25204L36.6191 9.10041L36.7483 8.95184C36.8335 8.85395 36.9028 8.65793 36.9515 8.37667C36.9922 8.14206 37.0468 7.89831 37.0728 7.83504C37.0988 7.77177 37.136 7.64236 37.1556 7.54746C37.2066 7.29956 37.2808 7.01807 37.3906 6.65595C37.4433 6.48196 37.499 6.25523 37.5143 6.15216C37.5298 6.04903 37.5653 5.95045 37.5933 5.93308C37.6214 5.91565 37.6443 5.8139 37.6443 5.70692C37.6443 5.59994 37.6672 5.49819 37.6953 5.48076C37.7233 5.46339 37.7601 5.36481 37.777 5.26168C37.817 5.01862 37.8982 4.69209 38.0166 4.29776C38.0689 4.12377 38.1337 3.89083 38.1606 3.78011C38.1875 3.66939 38.2387 3.47527 38.2744 3.34873C38.3101 3.22219 38.3646 3.01513 38.3954 2.8886C38.4263 2.76206 38.4737 2.56794 38.5007 2.45722C38.5277 2.3465 38.5924 2.11356 38.6443 1.93957C38.7665 1.52982 38.8475 1.20594 38.8818 0.990543C38.8969 0.895641 38.9364 0.726197 38.9695 0.613981C39.0197 0.444249 39.0112 0.37661 38.9194 0.211364C38.804 0.00395844 38.7056 -0.0437811 38.5609 0.0374901Z" fill="#335EC3"/>
<path d="M54.9575 34.0085C54.9575 32.6318 54.9575 31.3077 54.9575 30.036C54.9575 28.7643 54.9575 27.3527 54.9575 25.801V17.401C54.9575 15.8143 54.9575 14.3735 54.9575 13.0785C54.9575 11.7835 54.9575 10.4418 54.9575 9.05348C55.9725 9.05348 56.9817 9.05348 57.985 9.05348C59 9.05348 60.015 9.05348 61.03 9.05348C62.045 9.05348 63.0833 9.05348 64.145 9.05348C66.0583 9.05348 67.7558 9.33348 69.2375 9.89348C70.7308 10.4418 71.9908 11.2526 73.0175 12.326C74.0442 13.3877 74.82 14.6827 75.345 16.211C75.8817 17.7393 76.15 19.4835 76.15 21.4435C76.15 23.2051 75.9108 24.8502 75.4325 26.3785C74.9658 27.8952 74.2192 29.2252 73.1925 30.3685C72.1775 31.5118 70.8358 32.4043 69.1675 33.046C67.4992 33.6877 65.4692 34.0085 63.0775 34.0085C62.0392 34.0085 61.0708 34.0085 60.1725 34.0085C59.2742 34.0085 58.3992 34.0085 57.5475 34.0085C56.7075 34.0085 55.8442 34.0085 54.9575 34.0085ZM59.07 30.6485H63.095C65.2533 30.6485 66.9742 30.246 68.2575 29.441C69.5408 28.636 70.4625 27.5335 71.0225 26.1335C71.5825 24.7335 71.8625 23.1468 71.8625 21.3735C71.8625 20.0201 71.6992 18.7951 71.3725 17.6985C71.0458 16.5901 70.5383 15.6451 69.85 14.8635C69.1617 14.0701 68.2867 13.4635 67.225 13.0435C66.1633 12.6235 64.8975 12.4135 63.4275 12.4135H59.07C59.07 13.3351 59.07 14.2626 59.07 15.196C59.07 16.1176 59.07 17.1385 59.07 18.2585V24.9085C59.07 26.0051 59.07 27.0143 59.07 27.936C59.07 28.846 59.07 29.7502 59.07 30.6485ZM88.6048 34.411C86.4698 34.411 84.714 34.0143 83.3373 33.221C81.9606 32.4277 80.9398 31.3427 80.2748 29.966C79.6215 28.5893 79.2948 27.0085 79.2948 25.2235C79.2948 23.4618 79.6098 21.8985 80.2398 20.5335C80.8815 19.1685 81.8148 18.1068 83.0398 17.3485C84.2648 16.5785 85.7465 16.1935 87.4848 16.1935C88.9898 16.1935 90.2848 16.4793 91.3698 17.051C92.4548 17.611 93.289 18.451 93.8723 19.571C94.4556 20.691 94.7473 22.0793 94.7473 23.736C94.7473 24.1793 94.7356 24.5818 94.7123 24.9435C94.7006 25.2935 94.6656 25.6435 94.6073 25.9935L91.3348 24.5585C91.3581 24.3835 91.3756 24.2143 91.3873 24.051C91.399 23.876 91.4048 23.7126 91.4048 23.561C91.4048 22.126 91.0431 21.0176 90.3198 20.236C89.6081 19.4426 88.6748 19.046 87.5198 19.046C86.6215 19.046 85.8398 19.291 85.1748 19.781C84.5098 20.271 83.9906 20.9418 83.6173 21.7935C83.2556 22.6452 83.0748 23.6252 83.0748 24.7335V25.2935C83.0748 26.5302 83.2848 27.5918 83.7048 28.4785C84.1365 29.3652 84.7898 30.0477 85.6648 30.526C86.5515 31.0043 87.6656 31.2435 89.0073 31.2435C89.5206 31.2435 90.0806 31.2027 90.6873 31.121C91.3056 31.0277 91.924 30.8877 92.5423 30.701C93.1606 30.5143 93.744 30.2752 94.2923 29.9835L94.4323 33.2385C93.989 33.4718 93.4698 33.676 92.8748 33.851C92.2798 34.026 91.6206 34.1602 90.8973 34.2535C90.1856 34.3585 89.4215 34.411 88.6048 34.411ZM80.7998 25.9935V23.4385L92.3673 23.2985L94.6073 24.226V25.9935H80.7998ZM98.8893 40.851C98.8893 39.5793 98.8893 38.3252 98.8893 37.0885C98.8893 35.8635 98.8893 34.5335 98.8893 33.0985V24.6285C98.8893 23.3335 98.8893 22.0152 98.8893 20.6735C98.8893 19.3202 98.8893 17.9668 98.8893 16.6135L102.249 16.4035L102.354 18.7135H102.704C103.043 18.2235 103.474 17.786 103.999 17.401C104.524 17.016 105.119 16.7185 105.784 16.5085C106.461 16.2868 107.196 16.176 107.989 16.176C109.564 16.176 110.894 16.5726 111.979 17.366C113.076 18.1593 113.904 19.2443 114.464 20.621C115.036 21.9977 115.322 23.5435 115.322 25.2585C115.322 26.8802 115.054 28.391 114.517 29.791C113.992 31.1793 113.193 32.2993 112.119 33.151C111.046 34.0027 109.693 34.4285 108.059 34.4285C107.301 34.4285 106.607 34.3293 105.977 34.131C105.359 33.9327 104.793 33.6468 104.279 33.2735C103.778 32.9002 103.323 32.451 102.914 31.926H102.634V33.291C102.634 34.6327 102.634 35.8868 102.634 37.0535C102.634 38.2318 102.634 39.4568 102.634 40.7285L98.8893 40.851ZM106.782 31.156C107.867 31.156 108.759 30.8818 109.459 30.3335C110.159 29.7735 110.673 29.0502 110.999 28.1635C111.326 27.2652 111.489 26.3085 111.489 25.2935C111.489 24.2318 111.314 23.2635 110.964 22.3885C110.626 21.5018 110.107 20.796 109.407 20.271C108.707 19.746 107.814 19.4835 106.729 19.4835C106.193 19.4835 105.668 19.5651 105.154 19.7285C104.653 19.8801 104.186 20.1135 103.754 20.4285C103.323 20.7318 102.949 21.1168 102.634 21.5835V28.6535C102.938 29.1668 103.288 29.6102 103.684 29.9835C104.081 30.3568 104.536 30.6485 105.049 30.8585C105.563 31.0568 106.14 31.156 106.782 31.156ZM124.537 34.4285C122.729 34.4285 121.387 33.9035 120.512 32.8535C119.649 31.7918 119.217 30.246 119.217 28.216C119.217 27.446 119.217 26.7752 119.217 26.2035C119.217 25.6318 119.217 25.0601 119.217 24.4885C119.217 23.4151 119.217 22.441 119.217 21.566C119.217 20.691 119.217 19.8568 119.217 19.0635C119.217 18.2701 119.217 17.4535 119.217 16.6135L122.962 16.4735C122.962 17.7451 122.962 18.9935 122.962 20.2185C122.962 21.4435 122.962 22.7268 122.962 24.0685V27.2185C122.962 28.4668 123.178 29.4118 123.61 30.0535C124.053 30.6952 124.846 31.016 125.99 31.016C126.631 31.016 127.226 30.8818 127.775 30.6135C128.323 30.3335 128.819 29.966 129.262 29.511C129.717 29.0443 130.126 28.531 130.487 27.971V24.0685C130.487 22.7268 130.487 21.4668 130.487 20.2885C130.487 19.0985 130.487 17.8735 130.487 16.6135H134.232C134.232 17.8735 134.232 19.116 134.232 20.341C134.232 21.5543 134.232 22.9368 134.232 24.4885V26.3785C134.232 27.8135 134.232 29.126 134.232 30.316C134.232 31.506 134.232 32.7368 134.232 34.0085H131.03L130.89 31.0335H130.522C130.149 31.5818 129.676 32.1185 129.105 32.6435C128.533 33.1568 127.868 33.5827 127.11 33.921C126.351 34.2593 125.494 34.4285 124.537 34.4285ZM146.219 34.4285C145.017 34.4285 143.991 34.2302 143.139 33.8335C142.299 33.4368 141.657 32.8185 141.214 31.9785C140.782 31.1385 140.566 30.0535 140.566 28.7235C140.566 27.8018 140.566 26.8802 140.566 25.9585C140.566 25.0252 140.566 24.0977 140.566 23.176C140.566 22.2426 140.566 21.3151 140.566 20.3935C140.566 19.4718 140.566 18.5501 140.566 17.6285C140.566 16.3918 140.566 15.2485 140.566 14.1985C140.566 13.1485 140.566 12.0693 140.566 10.961L144.259 10.226C144.259 11.1126 144.259 11.9351 144.259 12.6935C144.259 13.4518 144.259 14.2277 144.259 15.021C144.259 15.8027 144.259 16.6718 144.259 17.6285V27.691C144.259 28.881 144.498 29.7793 144.976 30.386C145.455 30.981 146.201 31.2785 147.216 31.2785C147.636 31.2785 148.086 31.2085 148.564 31.0685C149.054 30.9168 149.503 30.6893 149.911 30.386L150.174 33.536C149.906 33.711 149.561 33.8685 149.141 34.0085C148.733 34.1368 148.272 34.236 147.759 34.306C147.257 34.3877 146.744 34.4285 146.219 34.4285ZM137.399 19.501V16.6135H150.034V19.501C148.891 19.501 147.741 19.501 146.586 19.501C145.431 19.501 144.306 19.501 143.209 19.501H141.616H137.399ZM161.784 34.411C159.649 34.411 157.893 34.0143 156.516 33.221C155.139 32.4277 154.119 31.3427 153.454 29.966C152.8 28.5893 152.474 27.0085 152.474 25.2235C152.474 23.4618 152.789 21.8985 153.419 20.5335C154.06 19.1685 154.994 18.1068 156.219 17.3485C157.444 16.5785 158.925 16.1935 160.664 16.1935C162.169 16.1935 163.464 16.4793 164.549 17.051C165.634 17.611 166.468 18.451 167.051 19.571C167.634 20.691 167.926 22.0793 167.926 23.736C167.926 24.1793 167.914 24.5818 167.891 24.9435C167.879 25.2935 167.844 25.6435 167.786 25.9935L164.514 24.5585C164.537 24.3835 164.554 24.2143 164.566 24.051C164.578 23.876 164.584 23.7126 164.584 23.561C164.584 22.126 164.222 21.0176 163.499 20.236C162.787 19.4426 161.854 19.046 160.699 19.046C159.8 19.046 159.019 19.291 158.354 19.781C157.689 20.271 157.169 20.9418 156.796 21.7935C156.434 22.6452 156.254 23.6252 156.254 24.7335V25.2935C156.254 26.5302 156.464 27.5918 156.884 28.4785C157.315 29.3652 157.969 30.0477 158.844 30.526C159.73 31.0043 160.844 31.2435 162.186 31.2435C162.699 31.2435 163.259 31.2027 163.866 31.121C164.484 31.0277 165.103 30.8877 165.721 30.701C166.339 30.5143 166.923 30.2752 167.471 29.9835L167.611 33.2385C167.168 33.4718 166.649 33.676 166.054 33.851C165.459 34.026 164.799 34.1602 164.076 34.2535C163.364 34.3585 162.6 34.411 161.784 34.411ZM153.979 25.9935V23.4385L165.546 23.2985L167.786 24.226V25.9935H153.979Z" fill="#335EC3"/>
</svg>
