<?xml version="1.0" encoding="UTF-8"?>
<svg viewBox="0 0 623 633" xmlns="http://www.w3.org/2000/svg">
<path d="m211.47 3.8475c19.287-4.3603 48.725-5.8463 108.3 0 26.766 4.7329 88.172 14.229 115.66 25.474 64.904 26.551 82.625 65.062 101.52 96.259 35.156 58.057 35.156 104.82 42.229 151.59s-2.704 96.259-7.073 140.11c-4.368 43.849-27.689 111.15-71.769 148.46-45.062 38.14-55.127 38.211-121.28 56.794-66.152 18.584-147.65 8.422-184.73 0-38.764-8.804-100.27-42.596-131.26-89.159-30.996-46.564-46.39-77.463-57.831-134.26-9.1531-45.436-4.4311-53.87-2.4e-4 -121.95l17.759-93.535c17.696-76.433 36.12-85.202 99.359-142.83 40.521-24.137 62.71-30.99 89.114-36.958z" fill="#fff"/>
<path d="m449.46 82.641c-1.113 0.626-2.775 1.2647-3.906 1.5018-0.597 0.1253-2.159 0.5496-3.472 0.9434-4.463 1.3384-7.419 2.1312-9.766 2.6193-0.716 0.1489-1.693 0.4374-2.17 0.6413-0.478 0.2039-1.357 0.4732-1.954 0.5981-0.597 0.1253-2.159 0.5496-3.472 0.9434-4.462 1.3384-7.418 2.1312-9.766 2.6193-0.716 0.1488-1.693 0.4374-2.17 0.6413-0.478 0.2038-1.356 0.4645-1.953 0.5788-0.597 0.1144-2.16 0.53-3.473 0.9238-5.64 1.6912-7.335 2.1526-9.766 2.6582-0.716 0.1488-1.692 0.4374-2.17 0.6413-0.885 0.378-1.921 0.6229-5.486 1.2974-2.471 0.4676-3.846 1.2865-3.846 2.2915 0 0.712 6.513 8.682 8.661 10.598 1.529 1.364 2.19 3.036 2.19 5.534v2.301l-49.611 49.998c-27.286 27.498-63.568 64.141-80.627 81.429-17.059 17.287-38.776 39.29-48.26 48.894l-17.244 17.462 0.034-52.386 11.961-12.224c24.353-24.888 38.599-39.791 39.964-41.806 1.444-2.132 3.651-3.809 5.014-3.812 1.293-3e-3 2.752 1.226 5.882 4.953 4.484 5.342 6.982 7.705 8.143 7.705 1.136 0 1.911-1.135 1.911-2.8 0-0.611 0.27-1.852 0.599-2.757 0.33-0.905 0.84-2.53 1.136-3.61 0.295-1.081 0.686-2.456 0.869-3.056 0.183-0.601 0.574-1.976 0.868-3.056 0.295-1.081 0.685-2.456 0.868-3.056 0.184-0.6 0.572-1.975 0.863-3.056 0.291-1.08 0.777-2.75 1.079-3.711 0.303-0.96 0.793-2.63 1.091-3.71 0.297-1.081 0.691-2.456 0.874-3.056 0.183-0.601 0.578-1.976 0.876-3.056 0.992-3.586 1.399-5.004 1.944-6.767 0.297-0.96 0.783-2.63 1.08-3.71 0.297-1.081 0.691-2.456 0.874-3.056 0.183-0.601 0.574-1.976 0.868-3.056 0.295-1.081 0.685-2.456 0.868-3.056 0.182-0.6 0.672-2.27 1.088-3.711 0.416-1.44 0.928-2.96 1.136-3.377 0.673-1.342 0.44-4.073-0.413-4.85-0.846-0.77-2.67-0.963-3.351-0.354-0.449 0.4-3.804 1.44-10.179 3.154-3.847 1.034-4.581 1.227-6.293 1.651-2.429 0.602-5.302 1.377-7.596 2.051-2.369 0.696-6.56 1.831-10.417 2.823-3.584 0.921-5.409 1.406-7.379 1.958-1.074 0.301-2.832 0.782-3.906 1.067-1.074 0.286-2.553 0.703-3.286 0.927s-1.747 0.407-2.253 0.407-1.028 0.175-1.159 0.389c-0.131 0.213-0.875 0.493-1.653 0.621-5.508 0.91-8.576 2.079-8.576 3.267 0 0.475 1.876 2.675 4.393 5.152 5.375 5.289 7.326 8.137 7.326 10.696 0 1.774-0.191 2.022-5.968 7.798-11.434 11.428-28.889 28.404-29.045 28.247-0.426-0.428-0.997-14.479-1.014-24.956-0.011-6.483-0.204-15.225-0.428-19.427-0.612-11.469-0.987-33.333-0.579-33.856 1.27-1.633 12.746-7.528 23.361-12 1.434-0.604 11.171-3.959 12.805-4.412 0.835-0.232 2.202-0.623 3.038-0.869 0.835-0.247 2.105-0.543 2.821-0.66s1.693-0.382 2.17-0.589c0.478-0.208 1.552-0.496 2.387-0.642 2.83-0.493 5.418-0.992 7.596-1.465 6.776-1.47 13.505-2.041 24.089-2.041 14.467 0 20.052 0.774 36.568 5.063 1.015 0.264 2.184 0.657 2.598 0.873 0.415 0.217 1.001 0.394 1.303 0.393 0.473-1e-3 2.013 0.577 7.276 2.73 0.597 0.244 1.476 0.594 1.953 0.778 1.804 0.693 4.467 1.911 8.212 3.755 2.129 1.048 4.007 1.906 4.172 1.906 0.377 0 3.126-2.182 5.412-4.295 0.955-0.883 2.419-2.166 3.255-2.85 0.835-0.685 2.3-1.965 3.255-2.844s3.446-3.053 5.534-4.831c2.089-1.778 3.798-3.385 3.798-3.572 0-0.357-3.642-2.999-4.135-2.999-0.158 0-0.843-0.397-1.521-0.883-1.826-1.308-12.529-6.613-16.805-8.329-0.537-0.216-1.465-0.589-2.062-0.829s-1.622-0.651-2.279-0.914c-0.657-0.261-1.746-0.753-2.422-1.091s-1.592-0.614-2.036-0.614-0.928-0.197-1.076-0.437c-0.147-0.24-0.65-0.436-1.117-0.436-0.466 0-1.187-0.178-1.602-0.394-0.414-0.217-1.632-0.637-2.706-0.932-1.075-0.296-3.354-1.003-5.065-1.571-1.711-0.5678-3.604-1.0323-4.206-1.0323s-1.203-0.1755-1.335-0.3902c-0.132-0.2148-0.974-0.4995-1.87-0.633-0.897-0.1332-2.607-0.4318-3.801-0.6636-3.681-0.7146-7.676-1.3874-10.833-1.8235-1.661-0.2296-3.371-0.5295-3.8-0.6666-0.429-0.1367-4.93-0.4881-10.001-0.7801-7.293-0.42-11.165-0.4174-18.517 0.0117-5.113 0.2982-9.605 0.6632-9.983 0.8103-0.378 0.1475-2.152 0.4645-3.942 0.7046-7.244 0.9718-16.988 2.9926-20.328 4.2157-0.637 0.232-2.036 0.665-3.11 0.96-1.075 0.295-2.344 0.684-2.822 0.863-0.477 0.18-1.649 0.562-2.604 0.849-1.485 0.447-4.49 1.574-8.355 3.133-0.537 0.217-1.465 0.591-2.062 0.831s-1.524 0.616-2.061 0.836c-1.909 0.78-16.201 7.917-18.122 9.05-1.074 0.633-2.633 1.539-3.464 2.012-6.159 3.508-17.742 11.573-24.748 17.23l-3.69 2.979-0.289 86.21c-0.159 47.415-0.415 103.1-0.57 123.75l-0.279 37.544 4.693 3.052c2.581 1.679 4.79 3.172 4.909 3.318 0.12 0.146 0.608 0.473 1.085 0.725 0.478 0.253 5.33 3.523 10.783 7.269 5.452 3.745 10.061 6.809 10.241 6.809s0.68 0.393 1.112 0.873 0.93 0.873 1.107 0.873 2.051 1.19 4.165 2.645c3.162 2.176 9.694 5.664 13.826 7.382 0.478 0.199 1.649 0.686 2.604 1.082s2.075 0.907 2.49 1.136c0.414 0.228 1.108 0.415 1.541 0.415s0.973 0.165 1.2 0.367c0.226 0.201 2.463 1 4.969 1.776 2.507 0.775 5.345 1.69 6.308 2.034s2.173 0.625 2.687 0.625c0.516 0 1.058 0.197 1.205 0.437 0.148 0.24 0.78 0.436 1.406 0.436 0.625 0 1.737 0.182 2.47 0.403 1.494 0.452 4.395 1.054 8.277 1.717 1.433 0.245 4.265 0.743 6.294 1.107s5.252 0.81 7.162 0.99c5.354 0.506 28.124 0.393 32.987-0.164 4.547-0.52 12.57-1.924 18.229-3.188 1.194-0.267 2.904-0.591 3.801-0.721 0.896-0.13 1.738-0.412 1.87-0.626 0.132-0.215 0.625-0.391 1.094-0.391 0.89 0 7.434-1.997 8.746-2.67 0.415-0.212 1.108-0.386 1.541-0.386s0.973-0.162 1.2-0.36c0.226-0.198 1.291-0.636 2.365-0.973 1.074-0.336 2.88-1.058 4.013-1.604 1.133-0.545 2.259-0.992 2.502-0.992s0.781-0.193 1.195-0.429c0.415-0.237 2.024-0.999 3.575-1.694 4.343-1.947 10.335-4.978 13.455-6.807 5.16-3.024 5.854-3.427 6.733-3.907 1.72-0.941 13.535-9.188 17.791-12.419 4.838-3.673 16.084-14.772 21.074-20.8 6.233-7.529 14.885-19.962 18.986-27.285 1.427-2.546 9.069-17.949 9.64-19.426 0.185-0.481 1.062-2.74 1.951-5.021 0.888-2.281 1.767-4.54 1.953-5.02s0.67-1.954 1.075-3.274c0.404-1.321 1.227-3.973 1.828-5.894 1.07-3.419 1.481-4.984 2.349-8.949 0.653-2.983 1.135-5.58 1.66-8.949 0.262-1.681 0.59-3.351 0.728-3.711 0.774-2.013 1.215-10.663 1.215-23.792s-0.441-21.78-1.215-23.793c-0.138-0.36-0.466-2.029-0.728-3.71-0.53-3.402-1.007-5.965-1.684-9.059-0.249-1.14-0.634-2.908-0.855-3.929-0.587-2.712-1.203-5.044-1.681-6.367-0.232-0.64-0.662-2.047-0.955-3.128-0.294-1.08-0.686-2.357-0.871-2.837-0.186-0.481-0.63-1.856-0.987-3.056-1.831-6.151-10.891-27.34-12.549-29.349-0.492-0.597-1.256-0.107-4.475 2.867-0.955 0.882-3.102 2.781-4.772 4.221-1.67 1.438-3.916 3.424-4.992 4.412-1.075 0.989-3.371 3.011-5.102 4.495-1.73 1.485-3.147 2.892-3.147 3.128 0 0.237 0.735 1.75 1.632 3.364 1.653 2.969 3.422 6.576 4.008 8.171 0.355 0.966 0.888 2.277 1.862 4.584 0.355 0.841 0.903 2.314 1.218 3.274 0.315 0.961 0.728 1.933 0.918 2.161s0.345 0.855 0.345 1.393c0 0.539 0.196 1.1 0.434 1.248 0.239 0.149 0.434 0.836 0.434 1.528s0.174 1.366 0.387 1.499c0.212 0.132 0.481 0.88 0.598 1.663 0.117 0.782 0.599 2.797 1.071 4.478 0.764 2.719 1.216 4.718 2.074 9.168 1.372 7.114 2.086 21.671 1.524 31.104-0.705 11.843-1.571 17.753-3.693 25.211-0.41 1.441-0.838 3.111-0.951 3.711-0.114 0.6-0.362 1.484-0.551 1.964-0.19 0.481-0.772 2.249-1.294 3.929-2.254 7.252-8.052 20.137-12.344 27.43-1.107 1.881-2.012 3.495-2.012 3.588 0 0.286-6.513 9.829-9.072 13.293-6.331 8.569-12.919 16.128-17.623 20.218-12.823 11.15-27.996 20.386-43.836 26.682-1.672 0.664-3.378 1.385-3.792 1.601-0.415 0.216-1.136 0.393-1.602 0.393-0.467 0-0.956 0.173-1.086 0.386-0.13 0.212-0.777 0.491-1.436 0.619-1.238 0.24-2.524 0.597-6.625 1.841-5.944 1.802-13.495 3.056-22.353 3.712-6.467 0.479-23.171 0.141-24.877-0.503-0.552-0.209-1.566-0.38-2.253-0.38s-1.369-0.197-1.516-0.437c-0.148-0.24-0.581-0.436-0.962-0.436s-1.346-0.501-2.144-1.114c-2.458-1.885-2.099-3.123 2.129-7.337 3.74-3.726 9.274-9.001 13.351-12.722 7.63-6.965 12.583-11.779 12.583-12.229 0-1.705 4.039-2.627 6.184-1.413 2.072 1.172 5.881 4.312 8.561 7.055 3.026 3.099 4.262 3.539 5.316 1.894 0.608-0.95 1.46-5.46 1.792-9.495 0.089-1.081 0.492-3.045 0.896-4.366 0.83-2.715 1.393-4.85 1.788-6.766 0.148-0.721 0.434-1.703 0.637-2.183s0.49-1.462 0.638-2.183c0.148-0.72 0.442-1.997 0.655-2.837 0.383-1.517 0.625-2.37 1.982-6.985 0.388-1.321 0.885-3.04 1.103-3.82 0.218-0.781 0.61-2.155 0.871-3.056 0.261-0.9 0.576-2.277 0.699-3.06 0.123-0.782 0.398-1.531 0.61-1.663 0.213-0.132 0.387-0.778 0.387-1.436 0-0.659 0.155-1.383 0.345-1.612 0.19-0.227 0.697-1.593 1.128-3.034 0.431-1.44 0.959-2.96 1.174-3.377s0.391-1.121 0.391-1.564c0-0.444 0.146-0.953 0.326-1.131 0.696-0.695 1.247-4.395 0.807-5.423-0.394-0.919-0.649-0.997-2.629-0.808-1.206 0.114-2.975 0.416-3.929 0.671-0.955 0.253-2.323 0.583-3.039 0.732s-1.692 0.437-2.17 0.641c-0.477 0.204-1.356 0.468-1.953 0.586s-2.159 0.542-3.472 0.941-3.12 0.906-4.015 1.127c-3.631 0.897-5.401 1.336-7.053 1.752-0.955 0.24-2.42 0.608-3.256 0.818-0.835 0.21-2.593 0.708-3.906 1.106s-3.169 0.915-4.123 1.146c-1.902 0.462-4.316 1.067-6.837 1.712-0.895 0.229-2.36 0.598-3.255 0.82-0.895 0.223-2.799 0.724-4.232 1.116-3.736 1.02-5.464 1.46-6.944 1.768-2.485 0.517-4.994 2.026-4.99 3.001 1e-3 0.263 0.538 1.068 1.194 1.789 0.655 0.721 1.857 2.096 2.67 3.056 0.813 0.959 2.815 3.186 4.449 4.948 2.86 3.085 2.97 3.285 2.97 5.414v2.211l-6.185 6.181c-3.402 3.4-12.338 12.157-19.857 19.462-7.52 7.304-16.114 15.658-19.098 18.564-13.363 13.013-15.711 15.259-16.09 15.395-0.246 0.089-0.401-9.804-0.397-25.32l6e-3 -25.465 53.719-54.133c29.546-29.773 77.542-78.27 106.66-107.77s53.669-54.106 54.559-54.678c0.969-0.623 2.274-1.04 3.25-1.04 1.521 0 2.065 0.434 8.061 6.439l6.43 6.439 0.979-1.128c0.646-0.743 1.17-2.23 1.54-4.365 0.308-1.781 0.722-3.631 0.919-4.111s0.479-1.463 0.627-2.183c0.387-1.882 0.949-4.018 1.78-6.767 0.4-1.32 0.822-3.041 0.938-3.823 0.117-0.783 0.386-1.531 0.598-1.663 0.213-0.132 0.387-0.905 0.387-1.717s0.173-1.584 0.386-1.716c0.212-0.132 0.491-0.88 0.619-1.663 0.303-1.845 0.918-4.323 1.816-7.316 0.396-1.321 0.887-3.089 1.091-3.929 0.204-0.841 0.592-2.314 0.862-3.274 0.27-0.961 0.683-2.532 0.917-3.493 0.234-0.96 0.593-2.434 0.798-3.274 0.204-0.84 0.694-2.6085 1.087-3.929 0.926-3.11 1.54-5.5683 1.8-7.2032 0.114-0.7203 0.413-2.0064 0.665-2.8581 0.38-1.2883 0.316-1.8017-0.381-3.0559-0.874-1.5742-1.619-1.9365-2.716-1.3197z" clip-rule="evenodd" fill="#B1C8FF" fill-rule="evenodd"/>
<path d="m305.94 339.28c0.272 0.287 0.522 0.595 0.747 0.923l35.011-0.878 4.084-7.642 12.069 4.805-5.947 14.248c-0.48 1.151-1.312 2.111-2.371 2.737-1.059 0.625-2.287 0.882-3.501 0.732l-39.555-4.893c-0.933 1.21-2.203 2.1-3.643 2.552-1.439 0.452-2.978 0.445-4.413-0.021-1.435-0.465-2.697-1.367-3.62-2.586-0.922-1.218-1.46-2.695-1.542-4.234-0.083-1.539 0.295-3.067 1.081-4.381 0.787-1.314 1.945-2.352 3.322-2.975 1.376-0.624 2.906-0.803 4.385-0.515 1.478 0.288 2.836 1.03 3.893 2.128z" fill="#FFB7B7"/>
<path d="m420.2 553.37h-11.418l-5.433-44.563 16.853 1e-3 -2e-3 44.562z" fill="#FFB7B7"/>
<path d="m423.57 564.65-37.638-1e-3v-0.462c0-3.767 1.544-7.379 4.291-10.043s6.474-4.16 10.359-4.16h1e-3l22.987 1e-3v14.665z" fill="#2F2E41"/>
<path d="m315.65 553.37-10.607-4.565 12.432-43.382 15.656 6.737-17.481 41.21z" fill="#FFB7B7"/>
<path d="m313.8 564.65-34.041-14.525 0.184-0.43c1.501-3.509 4.337-6.279 7.883-7.701s7.513-1.378 11.027 0.121h1e-3l20.791 8.871-5.845 13.664z" fill="#2F2E41"/>
<path d="m364.3 349.13-0.837 13.373 49.998 5.283-7.525-20.307-41.636 1.651z" fill="#FFB7B7"/>
<path d="m362.82 362.93-9.473-66.545 16.419-5.422 4.823-6.665 23.469 1.4 3.445 7.777 12.514 5.958-1.923 35.988 1.403 30.106-50.677-2.597z" fill="#2F2E41"/>
<path d="m356.51 345.22-16.645-6.725 0.071-0.3c0.072-0.301 7.156-30.196 8.097-35 0.979-5.005 4.559-6.389 4.711-6.445l0.112-0.042 6.587 2.025 2.893 22.954-5.826 23.533z" fill="#2F2E41"/>
<path d="m323.92 545.47-22.249-4.591 35.561-98.697 12.17-33.664s7.719-26.992 11.207-37.437l2.104-14.016 49.823 5.547s13.916 20.556 9.688 54.06l1.912 125.93-22.249 1.148-18.636-127.01-32.708 69.623s-10.309 29.711-17.685 36.151l-8.938 22.953z" fill="#2F2E41"/>
<path d="m392.65 367.48c0.395-0.01 0.791 0.012 1.184 0.065l23.479-26.514-2.731-8.148 11.799-5.716 6.242 13.957c0.504 1.128 0.628 2.388 0.352 3.591-0.275 1.204-0.935 2.286-1.88 3.084l-30.796 26.01c0.235 1.502 5e-3 3.04-0.658 4.408-0.663 1.369-1.729 2.504-3.055 3.255-1.327 0.75-2.851 1.08-4.37 0.946s-2.961-0.726-4.134-1.697c-1.174-0.971-2.023-2.275-2.435-3.738-0.411-1.464-0.366-3.018 0.13-4.455 0.496-1.438 1.419-2.691 2.647-3.592 1.227-0.902 2.701-1.41 4.226-1.456z" fill="#FFB7B7"/>
<path d="m415.22 343.53-9.627-22.791 3.755-15.874 4.045-5.145c0.297-0.127 0.616-0.191 0.938-0.188 0.323 3e-3 0.641 0.073 0.935 0.206 1.492 0.604 2.762 2.457 3.776 5.506l9.022 25.864-12.844 12.422z" fill="#2F2E41"/>
<path d="m365.15 276.08v-17.46c0-6.205 2.427-12.156 6.746-16.544 4.319-4.387 10.178-6.852 16.286-6.852 6.109 0 11.967 2.465 16.287 6.852 4.319 4.388 6.746 10.339 6.746 16.544v17.46c-1e-3 0.833-0.327 1.632-0.907 2.221s-1.367 0.921-2.187 0.922h-39.877c-0.82-1e-3 -1.607-0.333-2.187-0.922s-0.906-1.388-0.907-2.221z" fill="#2F2E41"/>
<path d="m383.41 278.66c9.463 0 17.134-7.576 17.134-16.922s-7.671-16.923-17.134-16.923c-9.462 0-17.134 7.577-17.134 16.923s7.672 16.922 17.134 16.922z" fill="#FFB7B7"/>
<path d="m359.53 259.7c5e-3 -4.844 1.927-9.488 5.344-12.913 3.416-3.425 8.048-5.352 12.88-5.357h3.438c4.832 5e-3 9.464 1.932 12.88 5.357s5.338 8.069 5.344 12.913v0.345h-7.267l-2.478-6.958-0.496 6.958h-3.755l-1.251-3.511-0.25 3.511h-24.389v-0.345z" fill="#2F2E41"/>
<path d="m381.49 280.77c-0.348-0.462-0.555-1.011-0.599-1.584s0.078-1.146 0.352-1.653c3.713-6.931 8.912-19.738 2.011-27.637l-0.496-0.567h20.033v29.517l-18.198 3.152c-0.184 0.032-0.371 0.048-0.558 0.048-0.497 0-0.987-0.116-1.429-0.338-0.442-0.221-0.825-0.543-1.116-0.938z" fill="#2F2E41"/>
<path d="m152.24 543.95 10.431 3.778 19.343-38.986-15.395-5.576-14.379 40.784z" fill="#9F616A"/>
<path d="m146.06 553 4.785-13.735 20.35 7.46c3.436 1.264 6.244 3.875 7.806 7.26 1.563 3.385 1.752 7.268 0.528 10.796l-0.151 0.432-33.318-12.213z" fill="#2F2E41"/>
<path d="m220.22 553.93 11.037-1e-3 5.252-42.869-16.291 1e-3 2e-3 42.869z" fill="#9F616A"/>
<path d="m217.4 550.55 21.615-1e-3h1e-3c1.809 0 3.6 0.367 5.272 1.081 1.671 0.714 3.189 1.76 4.469 3.079 1.279 1.319 2.293 2.884 2.986 4.608 0.692 1.723 1.048 3.57 1.048 5.435v0.462l-35.39 1e-3 -1e-3 -14.665z" fill="#2F2E41"/>
<path d="m194.93 279.93 4.771-9.732s17.77 4.597 19.385 15.23l-24.156-5.498z" fill="#F1F1F1"/>
<path d="m175.02 389.34 13.081 73.565-34.733 61.902 20.749 8.183 35.185-60.006 4.511-16.365 2.706 85.463 18.714-0.573 8.579-79.801-13.761-74.186-55.031 1.818z" fill="#2F2E41"/>
<path d="m199.79 406.71c-19.367 0-31.663-3.702-31.938-3.761l-0.446-0.095 10.087-46.743 0.454-43.116c0-18.272 12.032-31.742 13.702-32.985 0.281-1.109 0.801-2.144 1.524-3.031 0.722-0.888 1.63-1.607 2.659-2.107 4.013-1.82 8.918 0.363 9.124 0.458l14.721 5.516 0.069 0.204c0.177 0.522 19.566 64.138 19.566 64.138s-1.174 55.584-1.583 57.405c0 0-27.178 4.117-37.939 4.117z" fill="#3F3D56"/>
<path d="m214.6 267.38c10.859 0 19.662-8.966 19.662-20.025 0-11.06-8.803-20.025-19.662-20.025s-19.662 8.965-19.662 20.025c0 11.059 8.803 20.025 19.662 20.025z" fill="#9F616A"/>
<path d="m192.69 316.45 34.754 48.512 5.132-22.655-39.886-25.857z" opacity=".2"/>
<path d="m301.18 349.29c-0.979 0.774-2.115 1.325-3.329 1.612-1.215 0.287-2.477 0.305-3.699 0.052-1.222-0.254-2.373-0.772-3.373-1.518-1-0.747-1.824-1.704-2.414-2.803l-29.949 4.795 6.488-14.368 27.446-2.35c1.912-0.869 4.077-1.007 6.084-0.386 2.007 0.62 3.717 1.956 4.805 3.753 1.089 1.797 1.48 3.931 1.101 5.998-0.38 2.067-1.504 3.922-3.16 5.215z" fill="#9F616A"/>
<path d="m266.84 336.68 10.557-1.054 2.926 14.991-13.284 0.239-0.199-14.176z" fill="#F1F1F1"/>
<path d="m275.27 355.37-52.357-4.678-26.437-42.193-0.082-0.373c-0.75-3.447-0.225-7.05 1.478-10.136 1.703-3.087 4.467-5.446 7.777-6.637 3.309-1.191 6.937-1.133 10.206 0.164 3.27 1.297 5.957 3.743 7.561 6.883l15.519 30.378 31.321 4.751 5.014 21.841z" fill="#3F3D56"/>
<path d="m197.88 264.53 16.372 0.59c0.998 0.036 3.707-10.785 4.062-13.029 0.28-1.462 1.08-2.771 2.251-3.683 1.17-0.912 2.631-1.365 4.11-1.274 1.226 0.117 4.316-2.184 7.505-4.908 6.055-5.171 5.74-14.884-0.911-19.254-0.182-0.119-0.36-0.228-0.535-0.327-4.196-2.359-9.104-3.151-13.912-3.212-4.359-0.055-8.841 0.496-12.681 2.569-6.884 3.716-10.547 11.836-10.869 19.68s2.181 15.515 5.022 22.828" fill="#2F2E41"/>
<path d="m456.1 565.78h-330.94c-0.118 0-0.231-0.089-0.314-0.248-0.084-0.158-0.131-0.374-0.131-0.598s0.047-0.44 0.131-0.598c0.083-0.159 0.196-0.248 0.314-0.248h331.12c0.118 0 0.231 0.089 0.314 0.248 0.084 0.158 0.131 0.374 0.131 0.598 0 0.467-0.376 0.846-0.622 0.846z" fill="#CBCBCB"/>
<ellipse cx="24.156" cy="589.47" rx="24.156" ry="24.256" fill="#B1C8FF"/>
<ellipse cx="72.468" cy="586.65" rx="13.482" ry="13.538" fill="#B1C8FF"/>
<ellipse cx="598.84" cy="561.83" rx="24.156" ry="24.256" fill="#B1C8FF"/>
<ellipse cx="580.31" cy="515.01" rx="13.482" ry="13.538" fill="#B1C8FF"/>
<path d="m88.583 26.726c-3.0538-1e-4 -6.0163 0.5882-8.8114 1.77-2.6937 1.1413-5.1186 2.7645-7.1986 4.8442-2.0749 2.0747-3.7136 4.4943-4.8602 7.1828-1.1821 2.7848-1.7911 5.7371-1.8015 8.7808l-0.0381 34.317c-0.0103 2.4045 0.4512 4.7329 1.3742 6.9345 0.8927 2.1204 2.1708 4.0278 3.8092 5.6664 1.6282 1.6284 3.5253 2.9068 5.6406 3.8045 2.1862 0.929 4.5095 1.395 6.9089 1.4 2.3993 6e-3 4.7278-0.466 6.9192-1.389 2.1205-0.8928 4.0229-2.1762 5.6564-3.8096 1.6335-1.6333 2.9171-3.5355 3.8151-5.6508 0.9285-2.1965 1.4005-4.5248 1.4055-6.9242l0.058-27.246c5e-3 -1.7501-0.34-3.4444-1.014-5.0423-0.6493-1.5421-1.5877-2.927-2.7746-4.114-2.4448-2.4451-5.6811-3.7743-9.1254-3.7593-3.4596-0.0102-6.7113 1.3238-9.1617 3.7536-2.4502 2.4398-3.7999 5.6863-3.8001 9.1459l0.0038 17.009c-1e-4 0.8624 0.3346 1.6639 0.9383 2.2676 0.6035 0.6036 1.4101 0.9435 2.2674 0.9385h0.071c1.7704 0.0052 3.2112-1.4354 3.2164-3.2058l0.0266-17.019c0.0155-3.5459 2.897-6.4473 6.4327-6.4725 1.7095-5e-3 3.3176 0.6697 4.5399 1.8922 1.2326 1.2327 1.9123 2.8662 1.9071 4.596l-0.0528 27.24c0 0.0507 0 0.0912 0.0152 0.1369-0.0408 2.9726-1.2281 5.7625-3.3486 7.8626-2.1357 2.1152-4.9563 3.2819-7.9441 3.2767-1.5066-0.0153-2.9726-0.3248-4.3624-0.9133-1.3444-0.5733-2.5516-1.3952-3.5864-2.43-2.1202-2.1205-3.2867-4.9206-3.2916-7.8984 0.0051-0.0355 0.0051-0.0659 0.0102-0.1014l0.0077-34.276c0-0.0304-0.0051-0.0659-0.0102-0.1014 0.0205-2.1508 0.4518-4.2458 1.294-6.214 0.8219-1.9175 1.9888-3.632 3.4702-5.1132 1.4813-1.4811 3.2112-2.6427 5.1237-3.4594 1.9886-0.842 4.0938-1.2731 6.2598-1.2781 2.1711 1e-4 4.2763 0.4313 6.2647 1.2735 1.9174 0.8117 3.6421 1.9785 5.1232 3.4598 1.486 1.4863 2.658 3.2162 3.474 5.1489 0.847 1.9937 1.278 4.1191 1.283 6.3054l-0.037 23.654c0 0.8623 0.33 1.6689 0.938 2.2777 0.609 0.6087 1.416 0.9385 2.268 0.9385h0.05c1.766 1e-4 3.207-1.4405 3.207-3.2058l0.032-23.639c0-3.0538-0.593-6.0213-1.77-8.8114-1.136-2.6987-2.769-5.1134-4.849-7.1933-2.074-2.0748-4.494-3.7032-7.1824-4.8396-2.7848-1.1821-5.7422-1.7757-8.7909-1.7707z" fill="#6593FF" fill-opacity=".5"/>
</svg>
